<?xml version="1.0" encoding="utf-8"?>
<!-- Generator: Adobe Illustrator 21.0.0, SVG Export Plug-In . SVG Version: 6.00 Build 0)  -->
<svg version="1.1" id="Lag_1" xmlns="http://www.w3.org/2000/svg" xmlns:xlink="http://www.w3.org/1999/xlink" x="0px" y="0px"
	 viewBox="0 0 336 212.1" style="enable-background:new 0 0 336 212.1;" xml:space="preserve">
<style type="text/css">
	.st0{fill:#FFFFFF;}
	.st1{fill:#EFD773;}
	.st2{fill:#FF5757;}
	.st3{fill:#67CECA;}
	.st4{fill:#E6E6E6;}
	.st5{fill:#3B4956;}
	.st6{fill:#B3110F;}
	.st7{fill:#F5F2ED;}
</style>
<path class="st0" d="M336,169.2C336,75.7,260.8,0,168,0S0,75.7,0,169.2 M26,169.2c0-79,63.6-143,142-143s142,64,142,143"/>
<g>
	<path class="st1" d="M131.8,30.9c11.6-3.1,23.7-4.7,36.2-4.7c20.1,0,39.2,4.2,56.5,11.8L235.1,14C214.5,5,191.9,0,168,0
		c-14.8,0-29.2,1.9-42.9,5.6L131.8,30.9z"/>
	<path class="st2" d="M226.3,38.8c49.3,22.4,83.7,72.4,83.7,130.4c0,12.5-1.6,24.6-4.6,36.1l25.1,6.8c3.6-13.7,5.5-28.1,5.5-42.9
		c0-68.7-40.7-127.8-99.1-154.3L226.3,38.8z"/>
	<path class="st3" d="M30.5,205.1c-3-11.5-4.5-23.5-4.5-35.9c0-65.7,44-121,103.9-137.8l-6.7-25.3C52.2,25.9,0,91.4,0,169.2
		c0,14.8,1.9,29.1,5.4,42.7L30.5,205.1z"/>
</g>
<g>
	<g>
		<path class="st0" d="M42,204.6c-3.2-11.5-4.8-23.4-4.8-35.5c0-72.5,58.5-131.4,130.5-131.4c72,0,130.5,59,130.5,131.4
			c0,12-1.6,24-4.8,35.5H42z"/>
		<path class="st4" d="M167.7,38.3c34.7,0,67.4,13.6,91.9,38.3c24.6,24.7,38.1,57.6,38.1,92.6c0,11.9-1.6,23.6-4.7,35H42.4
			c-3.1-11.3-4.7-23.1-4.7-35c0-35,13.5-67.8,38.1-92.6C100.3,51.9,133,38.3,167.7,38.3 M167.7,37.3c-72.3,0-131,59.1-131,131.9
			c0,12.5,1.7,24.5,4.9,36h252.1c3.2-11.4,4.9-23.5,4.9-36C298.7,96.3,240,37.3,167.7,37.3L167.7,37.3z"/>
	</g>
</g>
<g>
	<path class="st5" d="M164.1,46.9c-0.4-0.3-0.9-0.5-1.5-0.5c-0.5,0-1,0.2-1.5,0.5s-0.8,0.7-1,1.3c-0.3,0.6-0.4,1.2-0.4,1.8
		c0,0.7,0.1,1.3,0.4,1.8c0.3,0.6,0.6,1,1,1.3c0.4,0.3,0.9,0.5,1.5,0.5c0.5,0,1-0.2,1.5-0.5c0.4-0.3,0.8-0.7,1-1.3
		c0.3-0.6,0.4-1.2,0.4-1.8c0-0.7-0.1-1.3-0.4-1.8C164.9,47.6,164.6,47.2,164.1,46.9z M163.6,51.4c-0.2,0.4-0.5,0.5-0.9,0.5
		c-0.4,0-0.7-0.2-0.9-0.5c-0.2-0.4-0.4-0.8-0.4-1.3s0.1-1,0.4-1.3c0.2-0.4,0.5-0.5,0.9-0.5c0.2,0,0.5,0.1,0.7,0.2s0.3,0.4,0.5,0.7
		c0.1,0.3,0.2,0.6,0.2,1C163.9,50.6,163.8,51,163.6,51.4z"/>
	<polygon class="st5" points="173.1,46.5 168.6,53.6 169.9,53.6 174.3,46.5 	"/>
	<path class="st5" d="M173.7,50.1c-0.5,0-0.9,0.2-1.3,0.5c-0.3,0.3-0.5,0.8-0.5,1.3c0,0.5,0.2,0.9,0.5,1.3c0.3,0.3,0.8,0.5,1.3,0.5
		c0.5,0,0.9-0.2,1.3-0.5c0.3-0.3,0.5-0.8,0.5-1.3c0-0.5-0.2-0.9-0.5-1.3C174.6,50.3,174.2,50.1,173.7,50.1z M174.2,52.4
		c-0.1,0.1-0.3,0.2-0.5,0.2c-0.2,0-0.4-0.1-0.6-0.2c-0.1-0.1-0.2-0.3-0.2-0.5c0-0.2,0.1-0.4,0.2-0.5c0.1-0.1,0.3-0.2,0.6-0.2
		c0.2,0,0.4,0.1,0.6,0.2c0.1,0.1,0.2,0.3,0.2,0.5C174.4,52.1,174.4,52.3,174.2,52.4z"/>
	<path class="st5" d="M170.6,49.5c0.3-0.3,0.5-0.8,0.5-1.3c0-0.5-0.2-0.9-0.5-1.3c-0.3-0.3-0.8-0.5-1.3-0.5c-0.5,0-0.9,0.2-1.3,0.5
		c-0.3,0.3-0.5,0.8-0.5,1.3c0,0.5,0.2,0.9,0.5,1.3c0.3,0.3,0.8,0.5,1.3,0.5S170.2,49.8,170.6,49.5z M168.7,48.7
		c-0.1-0.1-0.2-0.3-0.2-0.5c0-0.3,0.1-0.6,0.4-0.7c0.1-0.1,0.3-0.1,0.5-0.1c0.2,0,0.3,0.1,0.5,0.2c0.1,0.1,0.2,0.3,0.2,0.5
		c0,0.2-0.1,0.4-0.2,0.5s-0.3,0.2-0.5,0.2C169.1,49,168.9,48.9,168.7,48.7z"/>
	<path class="st5" d="M108.8,67.7c0.6-0.6,1-1.2,1.2-1.6s0.4-0.9,0.4-1.4c0-0.7-0.2-1.3-0.7-1.7c-0.5-0.4-1.1-0.7-1.8-0.7
		c-0.6,0-1.1,0.1-1.6,0.4c-0.5,0.3-0.9,0.7-1.2,1.1l1.2,1.1c0.5-0.8,1-1.1,1.6-1.1c0.4,0,0.8,0.2,0.9,0.6c0.1,0.1,0.1,0.2,0.1,0.4
		c0,0.3-0.1,0.6-0.3,0.9c-0.1,0.1-0.1,0.2-0.2,0.3c-0.1,0.1-0.2,0.3-0.5,0.5c-0.3,0.3-0.4,0.4-0.5,0.6l-2.3,2.4h5.3l0.4-1.5h-2.1
		L108.8,67.7z"/>
	<path class="st5" d="M114,64.5c-0.1,0-0.3,0-0.4,0l0.1-0.6h2.3l0.4-1.5h-3.9l-0.7,4c0.6-0.2,1.1-0.4,1.6-0.4c0.5,0,0.9,0.1,1.1,0.3
		c0.3,0.2,0.4,0.4,0.4,0.8s-0.1,0.6-0.3,0.7c-0.2,0.2-0.4,0.3-0.8,0.3s-0.6-0.1-0.9-0.3s-0.5-0.4-0.7-0.7l-1.2,1.2
		c0.3,0.4,0.7,0.8,1.2,1c0.5,0.3,1.1,0.4,1.6,0.4c0.8,0,1.4-0.2,1.9-0.7c0.5-0.5,0.7-1.1,0.7-1.8c0-0.7-0.2-1.3-0.7-1.8
		C115.3,64.8,114.7,64.5,114,64.5z"/>
	<polygon class="st5" points="123.9,62.4 119.4,69.5 120.7,69.5 125.1,62.4 	"/>
	<path class="st5" d="M124.5,66c-0.5,0-0.9,0.2-1.3,0.5c-0.3,0.3-0.5,0.8-0.5,1.3c0,0.5,0.2,0.9,0.5,1.3c0.3,0.3,0.8,0.5,1.3,0.5
		c0.5,0,0.9-0.2,1.3-0.5c0.3-0.3,0.5-0.8,0.5-1.3c0-0.5-0.2-0.9-0.5-1.3C125.4,66.1,125,66,124.5,66z M125,68.3
		c-0.1,0.1-0.3,0.2-0.5,0.2c-0.2,0-0.4-0.1-0.6-0.2c-0.1-0.1-0.2-0.3-0.2-0.5c0-0.2,0.1-0.4,0.2-0.5c0.1-0.1,0.3-0.2,0.5-0.2
		c0.2,0,0.4,0.1,0.6,0.2c0.1,0.1,0.2,0.3,0.2,0.5C125.2,68,125.2,68.1,125,68.3z"/>
	<path class="st5" d="M121.4,65.4c0.3-0.3,0.5-0.8,0.5-1.3c0-0.5-0.2-0.9-0.5-1.3c-0.3-0.3-0.8-0.5-1.3-0.5c-0.5,0-0.9,0.2-1.3,0.5
		c-0.3,0.3-0.5,0.8-0.5,1.3c0,0.5,0.2,0.9,0.5,1.3c0.3,0.3,0.8,0.5,1.3,0.5C120.6,65.9,121,65.7,121.4,65.4z M119.5,64.6
		c-0.1-0.1-0.2-0.3-0.2-0.5c0-0.3,0.1-0.6,0.4-0.7c0.1-0.1,0.3-0.1,0.5-0.1s0.3,0.1,0.5,0.2c0.1,0.1,0.2,0.3,0.2,0.5
		c0,0.2-0.1,0.4-0.2,0.5c-0.1,0.1-0.3,0.2-0.5,0.2C119.9,64.8,119.7,64.8,119.5,64.6z"/>
	<path class="st5" d="M71.2,102.5c-0.3,0-0.6-0.1-0.9-0.3s-0.5-0.4-0.7-0.7l-1.2,1.2c0.3,0.4,0.7,0.8,1.2,1c0.5,0.3,1.1,0.4,1.6,0.4
		c0.8,0,1.4-0.2,1.9-0.7c0.5-0.5,0.7-1.1,0.7-1.8c0-0.7-0.2-1.3-0.7-1.8c-0.5-0.5-1.1-0.7-1.8-0.7c-0.1,0-0.3,0-0.4,0l0.1-0.6h2.3
		l0.4-1.5h-3.9l-0.7,4c0.6-0.2,1.1-0.4,1.6-0.4c0.5,0,0.9,0.1,1.1,0.3c0.3,0.2,0.4,0.4,0.4,0.8s-0.1,0.6-0.3,0.7
		C71.7,102.4,71.5,102.5,71.2,102.5z"/>
	<path class="st5" d="M78.7,97.3c-0.4-0.3-0.9-0.5-1.5-0.5c-0.5,0-1,0.2-1.5,0.5s-0.8,0.7-1,1.3c-0.3,0.6-0.4,1.2-0.4,1.8
		c0,0.7,0.1,1.3,0.4,1.8c0.3,0.6,0.6,1,1,1.3s0.9,0.5,1.5,0.5c0.5,0,1-0.2,1.5-0.5c0.4-0.3,0.8-0.7,1-1.3c0.3-0.6,0.4-1.2,0.4-1.8
		c0-0.7-0.1-1.3-0.4-1.8C79.4,98,79.1,97.6,78.7,97.3z M78.1,101.8c-0.2,0.4-0.5,0.5-0.9,0.5c-0.4,0-0.7-0.2-0.9-0.5
		c-0.2-0.4-0.4-0.8-0.4-1.3s0.1-1,0.4-1.3c0.2-0.4,0.5-0.5,0.9-0.5c0.2,0,0.5,0.1,0.7,0.2s0.3,0.4,0.5,0.7c0.1,0.3,0.2,0.6,0.2,1
		C78.5,101,78.3,101.4,78.1,101.8z"/>
	<path class="st5" d="M85.1,99.9c0.3-0.3,0.5-0.8,0.5-1.3s-0.2-0.9-0.5-1.3c-0.3-0.3-0.8-0.5-1.3-0.5c-0.5,0-0.9,0.2-1.3,0.5
		c-0.3,0.3-0.5,0.8-0.5,1.3c0,0.5,0.2,0.9,0.5,1.3c0.3,0.3,0.8,0.5,1.3,0.5C84.3,100.4,84.8,100.2,85.1,99.9z M83.3,99.2
		C83.1,99,83,98.8,83,98.7c0-0.3,0.1-0.6,0.4-0.7c0.1-0.1,0.3-0.1,0.5-0.1s0.3,0.1,0.5,0.2c0.1,0.1,0.2,0.3,0.2,0.5
		s-0.1,0.4-0.2,0.5c-0.1,0.1-0.3,0.2-0.5,0.2C83.6,99.4,83.4,99.3,83.3,99.2z"/>
	<path class="st5" d="M88.2,100.5c-0.5,0-0.9,0.2-1.3,0.5c-0.3,0.3-0.5,0.8-0.5,1.3c0,0.5,0.2,0.9,0.5,1.3c0.3,0.3,0.8,0.5,1.3,0.5
		c0.5,0,0.9-0.2,1.3-0.5c0.3-0.3,0.5-0.8,0.5-1.3c0-0.5-0.2-0.9-0.5-1.3C89.1,100.7,88.7,100.5,88.2,100.5z M88.7,102.8
		c-0.1,0.1-0.3,0.2-0.5,0.2c-0.2,0-0.4-0.1-0.6-0.2c-0.1-0.1-0.2-0.3-0.2-0.5c0-0.2,0.1-0.4,0.2-0.5c0.1-0.1,0.3-0.2,0.5-0.2
		c0.2,0,0.4,0.1,0.6,0.2c0.1,0.1,0.2,0.3,0.2,0.5C89,102.5,88.9,102.7,88.7,102.8z"/>
	<polygon class="st5" points="87.6,96.9 83.2,104 84.4,104 88.8,96.9 	"/>
	<polygon class="st5" points="48.5,147.9 50.4,147.9 54.1,140.8 48.4,140.8 48.4,142.3 51.5,142.3 	"/>
	<path class="st5" d="M57,146.4c-0.3,0-0.6-0.1-0.9-0.3c-0.3-0.2-0.5-0.4-0.7-0.7l-1.2,1.2c0.3,0.4,0.7,0.8,1.2,1s1.1,0.4,1.6,0.4
		c0.8,0,1.4-0.2,1.9-0.7c0.5-0.5,0.7-1.1,0.7-1.8c0-0.7-0.2-1.3-0.7-1.8c-0.5-0.5-1.1-0.7-1.8-0.7c-0.1,0-0.3,0-0.4,0l0.1-0.6h2.3
		l0.4-1.5h-3.9l-0.7,4c0.6-0.2,1.1-0.4,1.6-0.4c0.5,0,0.9,0.1,1.1,0.3c0.3,0.2,0.4,0.4,0.4,0.8s-0.1,0.6-0.3,0.7
		C57.6,146.3,57.3,146.4,57,146.4z"/>
	<polygon class="st5" points="63.9,147.9 68.4,140.8 67.1,140.8 62.7,147.9 	"/>
	<path class="st5" d="M63.3,144.3c0.5,0,0.9-0.2,1.3-0.5c0.3-0.3,0.5-0.8,0.5-1.3c0-0.5-0.2-0.9-0.5-1.3c-0.3-0.3-0.8-0.5-1.3-0.5
		c-0.5,0-0.9,0.2-1.3,0.5c-0.3,0.3-0.5,0.8-0.5,1.3c0,0.5,0.2,0.9,0.5,1.3C62.4,144.1,62.8,144.3,63.3,144.3z M62.9,141.8
		c0.1-0.1,0.3-0.1,0.5-0.1s0.3,0.1,0.5,0.2c0.1,0.1,0.2,0.3,0.2,0.5c0,0.2-0.1,0.4-0.2,0.5c-0.1,0.1-0.3,0.2-0.5,0.2
		c-0.2,0-0.4-0.1-0.5-0.2c-0.1-0.1-0.2-0.3-0.2-0.5C62.6,142.2,62.7,142,62.9,141.8z"/>
	<path class="st5" d="M69,147.5c0.3-0.3,0.5-0.8,0.5-1.3c0-0.5-0.2-0.9-0.5-1.3c-0.3-0.4-0.8-0.5-1.3-0.5c-0.5,0-0.9,0.2-1.3,0.5
		c-0.3,0.3-0.5,0.8-0.5,1.3c0,0.5,0.2,0.9,0.5,1.3c0.3,0.3,0.8,0.5,1.3,0.5C68.2,148,68.7,147.8,69,147.5z M66.9,146.2
		c0-0.2,0.1-0.4,0.2-0.5c0.1-0.1,0.3-0.2,0.5-0.2c0.2,0,0.4,0.1,0.6,0.2c0.1,0.1,0.2,0.3,0.2,0.5c0,0.2-0.1,0.4-0.2,0.5
		c-0.1,0.1-0.3,0.2-0.5,0.2c-0.2,0-0.4-0.1-0.6-0.2C67,146.6,66.9,146.4,66.9,146.2z"/>
	<polygon class="st5" points="48.3,188.7 49.8,188.7 49.8,194.3 51.6,194.3 51.6,187.2 48.8,187.2 	"/>
	<path class="st5" d="M56.9,187.6c-0.4-0.3-0.9-0.5-1.5-0.5c-0.5,0-1,0.2-1.5,0.5c-0.4,0.3-0.8,0.7-1,1.3c-0.3,0.6-0.4,1.2-0.4,1.8
		c0,0.7,0.1,1.3,0.4,1.8c0.3,0.6,0.6,1,1,1.3s0.9,0.5,1.5,0.5c0.5,0,1-0.2,1.5-0.5c0.4-0.3,0.8-0.7,1-1.3c0.3-0.6,0.4-1.2,0.4-1.8
		c0-0.7-0.1-1.3-0.4-1.8C57.7,188.3,57.3,187.9,56.9,187.6z M56.3,192.1c-0.2,0.4-0.5,0.5-0.9,0.5c-0.4,0-0.7-0.2-0.9-0.5
		c-0.2-0.4-0.4-0.8-0.4-1.3c0-0.5,0.1-1,0.4-1.3c0.2-0.4,0.5-0.5,0.9-0.5c0.2,0,0.5,0.1,0.7,0.2c0.2,0.2,0.3,0.4,0.5,0.7
		c0.1,0.3,0.2,0.6,0.2,1C56.7,191.3,56.6,191.7,56.3,192.1z"/>
	<path class="st5" d="M63.2,187.6c-0.4-0.3-0.9-0.5-1.5-0.5c-0.5,0-1,0.2-1.5,0.5c-0.4,0.3-0.8,0.7-1,1.3c-0.3,0.6-0.4,1.2-0.4,1.8
		c0,0.7,0.1,1.3,0.4,1.8c0.3,0.6,0.6,1,1,1.3s0.9,0.5,1.5,0.5c0.5,0,1-0.2,1.5-0.5c0.4-0.3,0.8-0.7,1-1.3c0.3-0.6,0.4-1.2,0.4-1.8
		c0-0.7-0.1-1.3-0.4-1.8C64,188.3,63.6,187.9,63.2,187.6z M62.6,192.1c-0.2,0.4-0.5,0.5-0.9,0.5c-0.4,0-0.7-0.2-0.9-0.5
		c-0.2-0.4-0.4-0.8-0.4-1.3c0-0.5,0.1-1,0.4-1.3c0.2-0.4,0.5-0.5,0.9-0.5c0.2,0,0.5,0.1,0.7,0.2c0.2,0.2,0.3,0.4,0.5,0.7
		c0.1,0.3,0.2,0.6,0.2,1C63,191.3,62.9,191.7,62.6,192.1z"/>
	<polygon class="st5" points="72.1,187.2 67.7,194.3 69,194.3 73.4,187.2 	"/>
	<path class="st5" d="M69.7,190.2c0.3-0.3,0.5-0.8,0.5-1.3c0-0.5-0.2-0.9-0.5-1.3c-0.3-0.3-0.8-0.5-1.3-0.5c-0.5,0-0.9,0.2-1.3,0.5
		c-0.3,0.3-0.5,0.8-0.5,1.3c0,0.5,0.2,0.9,0.5,1.3c0.3,0.3,0.8,0.5,1.3,0.5C68.9,190.7,69.3,190.5,69.7,190.2z M67.8,189.4
		c-0.1-0.1-0.2-0.3-0.2-0.5c0-0.3,0.1-0.6,0.4-0.7c0.1-0.1,0.3-0.1,0.5-0.1s0.3,0.1,0.5,0.2c0.1,0.1,0.2,0.3,0.2,0.5
		c0,0.2-0.1,0.4-0.2,0.5c-0.1,0.1-0.3,0.2-0.5,0.2C68.1,189.7,67.9,189.6,67.8,189.4z"/>
	<path class="st5" d="M72.7,190.8c-0.5,0-0.9,0.2-1.3,0.5c-0.3,0.3-0.5,0.8-0.5,1.3c0,0.5,0.2,0.9,0.5,1.3c0.3,0.3,0.8,0.5,1.3,0.5
		c0.5,0,0.9-0.2,1.3-0.5c0.3-0.3,0.5-0.8,0.5-1.3c0-0.5-0.2-0.9-0.5-1.3C73.7,190.9,73.3,190.8,72.7,190.8z M73.3,193.1
		c-0.1,0.1-0.3,0.2-0.5,0.2c-0.2,0-0.4-0.1-0.6-0.2c-0.1-0.1-0.2-0.3-0.2-0.5c0-0.2,0.1-0.4,0.2-0.5c0.1-0.1,0.3-0.2,0.5-0.2
		c0.2,0,0.4,0.1,0.6,0.2c0.1,0.1,0.2,0.3,0.2,0.5C73.5,192.8,73.4,193,73.3,193.1z"/>
	<polygon class="st5" points="260.8,188.7 262.3,188.7 262.3,194.3 264,194.3 264,187.2 261.2,187.2 	"/>
	<path class="st5" d="M269.3,187.6c-0.4-0.3-0.9-0.5-1.5-0.5s-1,0.2-1.5,0.5c-0.4,0.3-0.8,0.7-1,1.3c-0.3,0.6-0.4,1.2-0.4,1.8
		c0,0.7,0.1,1.3,0.4,1.8c0.3,0.6,0.6,1,1,1.3c0.4,0.3,0.9,0.5,1.5,0.5s1-0.2,1.5-0.5c0.4-0.3,0.8-0.7,1-1.3c0.3-0.6,0.4-1.2,0.4-1.8
		c0-0.7-0.1-1.3-0.4-1.8C270.1,188.3,269.7,187.9,269.3,187.6z M268.8,192.1c-0.2,0.4-0.5,0.5-0.9,0.5c-0.4,0-0.7-0.2-0.9-0.5
		c-0.2-0.4-0.4-0.8-0.4-1.3c0-0.5,0.1-1,0.4-1.3c0.2-0.4,0.5-0.5,0.9-0.5c0.2,0,0.5,0.1,0.7,0.2c0.2,0.2,0.3,0.4,0.5,0.7
		c0.1,0.3,0.2,0.6,0.2,1C269.1,191.3,269,191.7,268.8,192.1z"/>
	<path class="st5" d="M275.6,187.6c-0.4-0.3-0.9-0.5-1.5-0.5s-1,0.2-1.5,0.5c-0.4,0.3-0.8,0.7-1,1.3c-0.3,0.6-0.4,1.2-0.4,1.8
		c0,0.7,0.1,1.3,0.4,1.8c0.3,0.6,0.6,1,1,1.3c0.4,0.3,0.9,0.5,1.5,0.5s1-0.2,1.5-0.5c0.4-0.3,0.8-0.7,1-1.3c0.3-0.6,0.4-1.2,0.4-1.8
		c0-0.7-0.1-1.3-0.4-1.8C276.4,188.3,276.1,187.9,275.6,187.6z M275.1,192.1c-0.2,0.4-0.5,0.5-0.9,0.5c-0.4,0-0.7-0.2-0.9-0.5
		c-0.2-0.4-0.4-0.8-0.4-1.3c0-0.5,0.1-1,0.4-1.3c0.2-0.4,0.5-0.5,0.9-0.5c0.2,0,0.5,0.1,0.7,0.2c0.2,0.2,0.3,0.4,0.5,0.7
		c0.1,0.3,0.2,0.6,0.2,1C275.4,191.3,275.3,191.7,275.1,192.1z"/>
	<polygon class="st5" points="284.5,187.2 280.1,194.3 281.4,194.3 285.8,187.2 	"/>
	<path class="st5" d="M282.1,190.2c0.3-0.3,0.5-0.8,0.5-1.3c0-0.5-0.2-0.9-0.5-1.3c-0.3-0.3-0.8-0.5-1.3-0.5s-0.9,0.2-1.3,0.5
		c-0.3,0.3-0.5,0.8-0.5,1.3c0,0.5,0.2,0.9,0.5,1.3c0.3,0.3,0.8,0.5,1.3,0.5C281.3,190.7,281.7,190.5,282.1,190.2z M280.2,189.4
		c-0.1-0.1-0.2-0.3-0.2-0.5c0-0.3,0.1-0.6,0.4-0.7c0.1-0.1,0.3-0.1,0.5-0.1s0.3,0.1,0.5,0.2c0.1,0.1,0.2,0.3,0.2,0.5
		c0,0.2-0.1,0.4-0.2,0.5c-0.1,0.1-0.3,0.2-0.5,0.2S280.4,189.6,280.2,189.4z"/>
	<path class="st5" d="M285.2,190.8c-0.5,0-0.9,0.2-1.3,0.5c-0.3,0.3-0.5,0.8-0.5,1.3c0,0.5,0.2,0.9,0.5,1.3c0.3,0.3,0.8,0.5,1.3,0.5
		c0.5,0,0.9-0.2,1.3-0.5c0.3-0.3,0.5-0.8,0.5-1.3c0-0.5-0.2-0.9-0.5-1.3C286.1,190.9,285.7,190.8,285.2,190.8z M285.7,193.1
		c-0.1,0.1-0.3,0.2-0.5,0.2c-0.2,0-0.4-0.1-0.6-0.2c-0.1-0.1-0.2-0.3-0.2-0.5c0-0.2,0.1-0.4,0.2-0.5c0.1-0.1,0.3-0.2,0.5-0.2
		c0.2,0,0.4,0.1,0.6,0.2c0.1,0.1,0.2,0.3,0.2,0.5C285.9,192.8,285.8,193,285.7,193.1z"/>
	<polygon class="st5" points="267.8,148.1 271.6,141 265.9,141 265.9,142.5 269,142.5 266,148.1 	"/>
	<path class="st5" d="M274.6,143.2c-0.1,0-0.3,0-0.4,0l0.1-0.6h2.3l0.4-1.5h-3.9l-0.7,4c0.6-0.2,1.1-0.4,1.6-0.4
		c0.5,0,0.9,0.1,1.1,0.3c0.3,0.2,0.4,0.4,0.4,0.8s-0.1,0.6-0.3,0.7s-0.4,0.3-0.8,0.3s-0.6-0.1-0.9-0.3c-0.3-0.2-0.5-0.4-0.7-0.7
		l-1.2,1.2c0.3,0.4,0.7,0.8,1.2,1c0.5,0.3,1.1,0.4,1.6,0.4c0.8,0,1.4-0.2,1.9-0.7c0.5-0.5,0.7-1.1,0.7-1.8c0-0.7-0.2-1.3-0.7-1.8
		C276,143.4,275.4,143.2,274.6,143.2z"/>
	<polygon class="st5" points="281.4,148.1 285.8,141 284.5,141 280.1,148.1 	"/>
	<path class="st5" d="M283.9,145.1c-0.3,0.3-0.5,0.8-0.5,1.3c0,0.5,0.2,0.9,0.5,1.3c0.3,0.3,0.8,0.5,1.3,0.5c0.5,0,0.9-0.2,1.3-0.5
		c0.3-0.3,0.5-0.8,0.5-1.3c0-0.5-0.2-0.9-0.5-1.3c-0.3-0.4-0.8-0.5-1.3-0.5C284.6,144.6,284.2,144.8,283.9,145.1z M285.9,146.4
		c0,0.2-0.1,0.4-0.2,0.5c-0.1,0.1-0.3,0.2-0.5,0.2c-0.2,0-0.4-0.1-0.6-0.2c-0.1-0.1-0.2-0.3-0.2-0.5c0-0.2,0.1-0.4,0.2-0.5
		c0.1-0.1,0.3-0.2,0.5-0.2c0.2,0,0.4,0.1,0.6,0.2C285.8,146,285.9,146.2,285.9,146.4z"/>
	<path class="st5" d="M280.8,144.5c0.5,0,0.9-0.2,1.3-0.5c0.3-0.3,0.5-0.8,0.5-1.3c0-0.5-0.2-0.9-0.5-1.3c-0.3-0.3-0.8-0.5-1.3-0.5
		s-0.9,0.2-1.3,0.5c-0.3,0.3-0.5,0.8-0.5,1.3c0,0.5,0.2,0.9,0.5,1.3C279.8,144.3,280.3,144.5,280.8,144.5z M280.4,142.1
		c0.1-0.1,0.3-0.1,0.5-0.1s0.3,0.1,0.5,0.2c0.1,0.1,0.2,0.3,0.2,0.5c0,0.2-0.1,0.4-0.2,0.5c-0.1,0.1-0.3,0.2-0.5,0.2
		s-0.4-0.1-0.5-0.2c-0.1-0.1-0.2-0.3-0.2-0.5C280,142.4,280.1,142.2,280.4,142.1z"/>
	<path class="st5" d="M248.3,99.1c-0.1,0-0.3,0-0.4,0l0.1-0.6h2.3l0.4-1.5h-3.9l-0.7,4c0.6-0.2,1.1-0.4,1.6-0.4
		c0.5,0,0.9,0.1,1.1,0.3c0.3,0.2,0.4,0.4,0.4,0.8s-0.1,0.6-0.3,0.7c-0.2,0.2-0.4,0.3-0.8,0.3s-0.6-0.1-0.9-0.3
		c-0.3-0.2-0.5-0.4-0.7-0.7l-1.2,1.2c0.3,0.4,0.7,0.8,1.2,1c0.5,0.3,1.1,0.4,1.6,0.4c0.8,0,1.4-0.2,1.9-0.7c0.5-0.5,0.7-1.1,0.7-1.8
		c0-0.7-0.2-1.3-0.7-1.8C249.6,99.3,249,99.1,248.3,99.1z"/>
	<path class="st5" d="M255.6,97.3c-0.4-0.3-0.9-0.5-1.5-0.5s-1,0.2-1.5,0.5s-0.8,0.7-1,1.3c-0.3,0.6-0.4,1.2-0.4,1.8
		c0,0.7,0.1,1.3,0.4,1.8c0.3,0.6,0.6,1,1,1.3c0.4,0.3,0.9,0.5,1.5,0.5s1-0.2,1.5-0.5c0.4-0.3,0.8-0.7,1-1.3c0.3-0.6,0.4-1.2,0.4-1.8
		c0-0.7-0.1-1.3-0.4-1.8S256,97.6,255.6,97.3z M255,101.8c-0.2,0.4-0.5,0.5-0.9,0.5c-0.4,0-0.7-0.2-0.9-0.5
		c-0.2-0.4-0.4-0.8-0.4-1.3s0.1-1,0.4-1.3c0.2-0.4,0.5-0.5,0.9-0.5c0.2,0,0.5,0.1,0.7,0.2c0.2,0.2,0.3,0.4,0.5,0.7
		c0.1,0.3,0.2,0.6,0.2,1C255.4,101,255.3,101.4,255,101.8z"/>
	<path class="st5" d="M262,99.9c0.3-0.3,0.5-0.8,0.5-1.3s-0.2-0.9-0.5-1.3c-0.3-0.3-0.8-0.5-1.3-0.5s-0.9,0.2-1.3,0.5
		c-0.3,0.3-0.5,0.8-0.5,1.3c0,0.5,0.2,0.9,0.5,1.3c0.3,0.3,0.8,0.5,1.3,0.5C261.3,100.4,261.7,100.2,262,99.9z M260.2,99.2
		c-0.1-0.1-0.2-0.3-0.2-0.5c0-0.3,0.1-0.6,0.4-0.7c0.1-0.1,0.3-0.1,0.5-0.1s0.3,0.1,0.5,0.2c0.1,0.1,0.2,0.3,0.2,0.5
		s-0.1,0.4-0.2,0.5c-0.1,0.1-0.3,0.2-0.5,0.2S260.3,99.3,260.2,99.2z"/>
	<polygon class="st5" points="265.8,96.9 264.5,96.9 260.1,104 261.3,104 	"/>
	<path class="st5" d="M263.8,101c-0.3,0.3-0.5,0.8-0.5,1.3c0,0.5,0.2,0.9,0.5,1.3c0.3,0.3,0.8,0.5,1.3,0.5c0.5,0,0.9-0.2,1.3-0.5
		c0.3-0.3,0.5-0.8,0.5-1.3c0-0.5-0.2-0.9-0.5-1.3c-0.3-0.4-0.8-0.5-1.3-0.5C264.6,100.5,264.2,100.7,263.8,101z M265.9,102.3
		c0,0.2-0.1,0.4-0.2,0.5c-0.1,0.1-0.3,0.2-0.5,0.2c-0.2,0-0.4-0.1-0.6-0.2c-0.1-0.1-0.2-0.3-0.2-0.5c0-0.2,0.1-0.4,0.2-0.5
		c0.1-0.1,0.3-0.2,0.5-0.2c0.2,0,0.4,0.1,0.6,0.2C265.8,101.9,265.9,102.1,265.9,102.3z"/>
	<path class="st5" d="M212.6,67.7c0.6-0.6,1-1.2,1.2-1.6c0.3-0.4,0.4-0.9,0.4-1.4c0-0.7-0.2-1.3-0.7-1.7c-0.5-0.4-1.1-0.7-1.8-0.7
		c-0.6,0-1.1,0.1-1.6,0.4c-0.5,0.3-0.9,0.7-1.2,1.1l1.2,1.1c0.5-0.8,1-1.1,1.6-1.1c0.4,0,0.8,0.2,0.9,0.6c0.1,0.1,0.1,0.2,0.1,0.4
		c0,0.3-0.1,0.6-0.3,0.9c-0.1,0.1-0.1,0.2-0.2,0.3c-0.1,0.1-0.2,0.3-0.5,0.5c-0.3,0.3-0.4,0.4-0.5,0.6l-2.3,2.4h5.3l0.4-1.5h-2.1
		L212.6,67.7z"/>
	<path class="st5" d="M217.8,64.5c-0.1,0-0.3,0-0.4,0l0.1-0.6h2.3l0.4-1.5h-3.9l-0.7,4c0.6-0.2,1.1-0.4,1.6-0.4
		c0.5,0,0.9,0.1,1.1,0.3c0.3,0.2,0.4,0.4,0.4,0.8s-0.1,0.6-0.3,0.7c-0.2,0.2-0.4,0.3-0.8,0.3s-0.6-0.1-0.9-0.3
		c-0.3-0.2-0.5-0.4-0.7-0.7l-1.2,1.2c0.3,0.4,0.7,0.8,1.2,1c0.5,0.3,1.1,0.4,1.6,0.4c0.8,0,1.4-0.2,1.9-0.7c0.5-0.5,0.7-1.1,0.7-1.8
		c0-0.7-0.2-1.3-0.7-1.8C219.1,64.8,218.5,64.5,217.8,64.5z"/>
	<polygon class="st5" points="227.7,62.4 223.2,69.5 224.5,69.5 228.9,62.4 	"/>
	<path class="st5" d="M225.2,65.4c0.3-0.3,0.5-0.8,0.5-1.3c0-0.5-0.2-0.9-0.5-1.3c-0.3-0.3-0.8-0.5-1.3-0.5s-0.9,0.2-1.3,0.5
		c-0.3,0.3-0.5,0.8-0.5,1.3c0,0.5,0.2,0.9,0.5,1.3c0.3,0.3,0.8,0.5,1.3,0.5C224.4,65.9,224.8,65.7,225.2,65.4z M223.3,64.6
		c-0.1-0.1-0.2-0.3-0.2-0.5c0-0.3,0.1-0.6,0.4-0.7c0.1-0.1,0.3-0.1,0.5-0.1s0.3,0.1,0.5,0.2s0.2,0.3,0.2,0.5c0,0.2-0.1,0.4-0.2,0.5
		c-0.1,0.1-0.3,0.2-0.5,0.2S223.5,64.8,223.3,64.6z"/>
	<path class="st5" d="M228.3,66c-0.5,0-0.9,0.2-1.3,0.5c-0.3,0.3-0.5,0.8-0.5,1.3c0,0.5,0.2,0.9,0.5,1.3c0.3,0.3,0.8,0.5,1.3,0.5
		c0.5,0,0.9-0.2,1.3-0.5c0.3-0.3,0.5-0.8,0.5-1.3c0-0.5-0.2-0.9-0.5-1.3C229.2,66.1,228.8,66,228.3,66z M228.8,68.3
		c-0.1,0.1-0.3,0.2-0.5,0.2c-0.2,0-0.4-0.1-0.6-0.2c-0.1-0.1-0.2-0.3-0.2-0.5c0-0.2,0.1-0.4,0.2-0.5c0.1-0.1,0.3-0.2,0.5-0.2
		c0.2,0,0.4,0.1,0.6,0.2c0.1,0.1,0.2,0.3,0.2,0.5C229,68,229,68.1,228.8,68.3z"/>
</g>
<path class="st6" d="M166.6,1.2l-4.8,168h11.5l-4.8-168C168.5-0.4,166.7-0.4,166.6,1.2z"/>
<g>
	<g>
		<path class="st7" d="M115.5,204.6c-7.2-10.7-11.1-23.1-11.1-36.1c0-35.3,28.5-64,63.6-64c35,0,63.5,28.7,63.5,64
			c0,12.9-3.8,25.4-11.1,36.1H115.5z"/>
		<path class="st4" d="M168,105.1c34.8,0,63,28.5,63,63.5c0,12.8-3.7,25-10.8,35.6H115.8c-7.1-10.5-10.8-22.8-10.8-35.6
			C105,133.6,133.2,105.1,168,105.1 M168,104.1c-35.4,0-64,28.9-64,64.5c0,13.6,4.2,26.2,11.3,36.6h105.5
			c7.1-10.4,11.3-23,11.3-36.6C232,133,203.4,104.1,168,104.1L168,104.1z"/>
	</g>
</g>
</svg>
