<?xml version="1.0" encoding="utf-8"?>
<!-- Generator: Adobe Illustrator 21.0.0, SVG Export Plug-In . SVG Version: 6.00 Build 0)  -->
<svg version="1.1" id="Lag_1" xmlns="http://www.w3.org/2000/svg" xmlns:xlink="http://www.w3.org/1999/xlink" x="0px" y="0px"
	 viewBox="0 0 640 404" style="enable-background:new 0 0 640 404;" xml:space="preserve">
<style type="text/css">
	.st0{fill:#FFFFFF;}
	.st1{fill:#EFD773;}
	.st2{fill:#FF5757;}
	.st3{fill:#67CECA;}
	.st4{fill:#E6E6E6;}
	.st5{fill:#3B4956;}
</style>
<path class="st0" d="M640,322.2C640,144.3,496.7,0,320,0S0,144.3,0,322.2 M49.5,322.2C49.5,171.8,170.6,49.9,320,49.9
	s270.5,121.9,270.5,272.4"/>
<g id="bg-house">
	<path class="st1" d="M251.1,58.8c22-5.8,45.1-8.9,68.9-8.9c38.3,0,74.6,8,107.6,22.4l20.1-45.6C408.6,9.6,365.4,0,320,0
		c-28.2,0-55.6,3.7-81.7,10.6L251.1,58.8z"/>
	<path class="st2" d="M431.1,73.9c94,42.7,159.3,137.8,159.3,248.4c0,23.8-3,46.9-8.7,68.9l47.8,12.9c6.8-26.1,10.4-53.5,10.4-81.8
		c0-130.9-77.5-243.5-188.7-294L431.1,73.9z"/>
	<path class="st3" d="M58.1,390.7c-5.6-21.9-8.6-44.8-8.6-68.5c0-125.1,83.8-230.5,197.9-262.4l-12.8-48.2
		C99.3,49.3,0,174.1,0,322.2c0,28.1,3.6,55.4,10.3,81.4L58.1,390.7z"/>
</g>
<g>
	<g>
		<path class="st0" d="M79.6,390.2c-6.1-22-9.3-44.9-9.3-68c0-67,25.9-130,72.9-177.3c47-47.4,109.6-73.4,176.1-73.4
			c66.5,0,129.1,26.1,176.1,73.4c47,47.4,72.9,110.3,72.9,177.3c0,23.1-3.1,46-9.3,68H79.6z"/>
		<path class="st4" d="M319.4,72c33.6,0,66.1,6.6,96.7,19.7c29.6,12.6,56.2,30.6,79,53.6c22.8,23,40.7,49.7,53.3,79.6
			c13,30.9,19.5,63.6,19.5,97.4c0,22.9-3.1,45.6-9.1,67.5H80c-6.1-21.9-9.1-44.6-9.1-67.5c0-33.8,6.6-66.6,19.5-97.4
			c12.5-29.8,30.4-56.6,53.3-79.6c22.8-23,49.4-41,79-53.6C253.3,78.6,285.8,72,319.4,72 M319.4,71C181.6,71,69.9,183.5,69.9,322.2
			c0,23.7,3.3,46.7,9.4,68.5h480.3c6.1-21.8,9.4-44.8,9.4-68.5C568.9,183.5,457.2,71,319.4,71L319.4,71z"/>
	</g>
</g>
<g>
	<path class="st5" d="M312.6,89.3c-0.8-0.6-1.8-0.9-2.8-0.9s-2,0.3-2.8,0.9c-0.8,0.6-1.5,1.4-2,2.5c-0.5,1.1-0.7,2.2-0.7,3.5
		c0,1.3,0.2,2.5,0.7,3.5c0.5,1.1,1.1,1.9,2,2.5s1.8,0.9,2.8,0.9s2-0.3,2.8-0.9c0.8-0.6,1.5-1.4,2-2.5c0.5-1.1,0.7-2.2,0.7-3.5
		c0-1.3-0.2-2.5-0.7-3.5C314.1,90.7,313.5,89.9,312.6,89.3z M311.6,97.9c-0.5,0.7-1,1-1.7,1c-0.7,0-1.3-0.3-1.7-1
		c-0.5-0.7-0.7-1.5-0.7-2.6c0-1,0.2-1.9,0.7-2.6c0.5-0.7,1-1,1.7-1c0.5,0,0.9,0.2,1.2,0.5c0.4,0.3,0.7,0.7,0.9,1.3s0.3,1.2,0.3,1.8
		C312.3,96.3,312,97.2,311.6,97.9z"/>
	<polygon class="st5" points="329.7,88.5 321.2,102.1 323.6,102.1 332,88.5 	"/>
	<path class="st5" d="M324.9,94.2c0.7-0.7,1-1.5,1-2.4c0-1-0.3-1.8-1-2.4s-1.5-1-2.5-1s-1.8,0.3-2.5,1c-0.7,0.7-1,1.5-1,2.4
		c0,1,0.3,1.8,1,2.4c0.7,0.7,1.5,1,2.5,1S324.3,94.9,324.9,94.2z M321.4,92.8c-0.3-0.3-0.4-0.6-0.4-0.9c0-0.6,0.2-1.1,0.7-1.4
		c0.2-0.1,0.5-0.2,0.9-0.2s0.7,0.1,0.9,0.4c0.3,0.3,0.4,0.6,0.4,1s-0.1,0.8-0.4,1c-0.3,0.3-0.6,0.4-1,0.4S321.7,93.1,321.4,92.8z"/>
	<path class="st5" d="M330.8,95.4c-1,0-1.8,0.3-2.5,1c-0.7,0.7-1,1.5-1,2.5c0,1,0.3,1.8,1,2.4c0.7,0.6,1.5,1,2.5,1
		c1,0,1.8-0.3,2.5-1c0.7-0.6,1-1.4,1-2.4c0-1-0.3-1.8-1-2.4S331.8,95.4,330.8,95.4z M331.8,99.8c-0.3,0.3-0.6,0.4-1,0.4
		c-0.4,0-0.8-0.1-1.1-0.4c-0.3-0.3-0.4-0.6-0.4-1c0-0.4,0.1-0.8,0.4-1c0.3-0.3,0.6-0.4,1-0.4s0.8,0.1,1.1,0.4c0.3,0.3,0.4,0.6,0.4,1
		C332.3,99.2,332.1,99.5,331.8,99.8z"/>
	<path class="st5" d="M207.3,128.9c1.1-1.2,1.9-2.2,2.4-3.1s0.7-1.7,0.7-2.7c0-1.3-0.4-2.4-1.3-3.3c-0.9-0.8-2.1-1.3-3.5-1.3
		c-1.1,0-2.2,0.3-3.1,0.8c-1,0.5-1.7,1.3-2.3,2.2l2.3,2.1c0.9-1.4,1.9-2.2,3-2.2c0.9,0,1.4,0.4,1.7,1.1c0.1,0.2,0.1,0.5,0.1,0.7
		c0,0.6-0.2,1.1-0.5,1.7c-0.1,0.2-0.3,0.4-0.4,0.6c-0.1,0.2-0.4,0.5-0.9,1s-0.8,0.8-1,1.1l-4.4,4.6h10.1l0.8-2.9h-4L207.3,128.9z"/>
	<path class="st5" d="M217.1,122.9c-0.3,0-0.5,0-0.9,0.1l0.2-1.2h4.4l0.8-2.9h-7.5l-1.4,7.6c1.1-0.5,2.1-0.7,3-0.7s1.6,0.2,2.1,0.5
		c0.5,0.3,0.7,0.8,0.7,1.4c0,0.6-0.2,1.1-0.5,1.4c-0.3,0.3-0.8,0.5-1.5,0.5s-1.2-0.2-1.8-0.5c-0.6-0.4-1-0.8-1.3-1.4l-2.2,2.2
		c0.5,0.8,1.3,1.4,2.3,1.9c1,0.5,2,0.7,3.1,0.7c1.5,0,2.7-0.5,3.6-1.4c1-0.9,1.4-2.1,1.4-3.5c0-1.4-0.4-2.5-1.3-3.4
		C219.6,123.4,218.4,122.9,217.1,122.9z"/>
	<polygon class="st5" points="235.9,118.8 227.5,132.3 229.9,132.3 238.3,118.8 	"/>
	<path class="st5" d="M231.2,124.5c0.7-0.7,1-1.5,1-2.4c0-1-0.3-1.8-1-2.4c-0.7-0.7-1.5-1-2.5-1s-1.8,0.3-2.5,1
		c-0.7,0.7-1,1.5-1,2.4c0,1,0.3,1.8,1,2.4c0.7,0.7,1.5,1,2.5,1S230.5,125.2,231.2,124.5z M227.7,123.1c-0.3-0.3-0.4-0.6-0.4-0.9
		c0-0.6,0.2-1.1,0.7-1.4c0.2-0.1,0.5-0.2,0.9-0.2s0.7,0.1,0.9,0.4c0.3,0.3,0.4,0.6,0.4,1s-0.1,0.8-0.4,1c-0.3,0.3-0.6,0.4-1,0.4
		S227.9,123.4,227.7,123.1z"/>
	<path class="st5" d="M237.1,125.6c-1,0-1.8,0.3-2.5,1c-0.7,0.7-1,1.5-1,2.5c0,1,0.3,1.8,1,2.4c0.7,0.6,1.5,1,2.5,1
		c1,0,1.8-0.3,2.5-1c0.7-0.6,1-1.4,1-2.4s-0.3-1.8-1-2.4S238.1,125.6,237.1,125.6z M238.1,130.1c-0.3,0.3-0.6,0.4-1,0.4
		c-0.4,0-0.8-0.1-1.1-0.4c-0.3-0.3-0.4-0.6-0.4-1s0.1-0.8,0.4-1c0.3-0.3,0.6-0.4,1-0.4s0.8,0.1,1.1,0.4c0.3,0.3,0.4,0.6,0.4,1
		C238.5,129.5,238.4,129.8,238.1,130.1z"/>
	<path class="st5" d="M135.5,195.3c-0.6,0-1.2-0.2-1.8-0.5s-1-0.8-1.3-1.4l-2.2,2.2c0.5,0.8,1.3,1.4,2.3,1.9c1,0.5,2,0.7,3.1,0.7
		c1.5,0,2.7-0.5,3.6-1.4c1-0.9,1.4-2.1,1.4-3.5c0-1.4-0.4-2.5-1.3-3.4c-0.9-0.9-2-1.3-3.4-1.3c-0.3,0-0.5,0-0.9,0.1l0.2-1.2h4.4
		l0.8-2.9h-7.5l-1.4,7.6c1.1-0.5,2.1-0.7,3-0.7s1.6,0.2,2.1,0.5c0.5,0.3,0.7,0.8,0.7,1.4c0,0.6-0.2,1.1-0.5,1.4
		C136.7,195.1,136.2,195.3,135.5,195.3z"/>
	<path class="st5" d="M149.8,185.3c-0.8-0.6-1.8-0.9-2.8-0.9s-2,0.3-2.8,0.9s-1.5,1.4-2,2.5c-0.5,1.1-0.7,2.2-0.7,3.5
		c0,1.3,0.2,2.5,0.7,3.5c0.5,1.1,1.1,1.9,2,2.5s1.8,0.9,2.8,0.9s2-0.3,2.8-0.9s1.5-1.4,2-2.5c0.5-1.1,0.7-2.2,0.7-3.5
		c0-1.3-0.2-2.5-0.7-3.5S150.7,185.9,149.8,185.3z M148.8,193.9c-0.5,0.7-1,1-1.7,1c-0.7,0-1.3-0.3-1.7-1c-0.5-0.7-0.7-1.5-0.7-2.6
		c0-1,0.2-1.9,0.7-2.6c0.5-0.7,1-1,1.7-1c0.5,0,0.9,0.2,1.2,0.5c0.4,0.3,0.7,0.7,0.9,1.3c0.2,0.6,0.3,1.2,0.3,1.8
		C149.5,192.3,149.2,193.2,148.8,193.9z"/>
	<polygon class="st5" points="166.8,184.6 158.4,198.1 160.8,198.1 169.2,184.6 	"/>
	<path class="st5" d="M162.1,190.3c0.7-0.7,1-1.5,1-2.4c0-1-0.3-1.8-1-2.4c-0.7-0.7-1.5-1-2.5-1s-1.8,0.3-2.5,1
		c-0.7,0.7-1,1.5-1,2.4c0,1,0.3,1.8,1,2.4c0.7,0.7,1.5,1,2.5,1S161.5,190.9,162.1,190.3z M158.6,188.9c-0.3-0.3-0.4-0.6-0.4-0.9
		c0-0.6,0.2-1.1,0.7-1.4c0.2-0.1,0.5-0.2,0.9-0.2s0.7,0.1,0.9,0.4c0.3,0.3,0.4,0.6,0.4,1c0,0.4-0.1,0.8-0.4,1
		c-0.3,0.3-0.6,0.4-1,0.4S158.9,189.1,158.6,188.9z"/>
	<path class="st5" d="M168,191.4c-1,0-1.8,0.3-2.5,1c-0.7,0.7-1,1.5-1,2.5c0,1,0.3,1.8,1,2.4s1.5,1,2.5,1c1,0,1.8-0.3,2.5-1
		c0.7-0.6,1-1.4,1-2.4c0-1-0.3-1.8-1-2.4S169,191.4,168,191.4z M169,195.8c-0.3,0.3-0.6,0.4-1,0.4c-0.4,0-0.8-0.1-1.1-0.4
		c-0.3-0.3-0.4-0.6-0.4-1c0-0.4,0.1-0.8,0.4-1c0.3-0.3,0.6-0.4,1-0.4s0.8,0.1,1.1,0.4c0.3,0.3,0.4,0.6,0.4,1
		C169.4,195.2,169.3,195.6,169,195.8z"/>
	<polygon class="st5" points="92.4,281.7 96,281.7 103.1,268.2 92.2,268.2 92.2,271.1 98.1,271.1 	"/>
	<path class="st5" d="M108.6,278.9c-0.6,0-1.2-0.2-1.8-0.5c-0.6-0.4-1-0.8-1.3-1.4l-2.2,2.2c0.5,0.8,1.3,1.4,2.3,1.9
		c1,0.5,2,0.7,3.1,0.7c1.5,0,2.7-0.5,3.6-1.4c1-0.9,1.4-2.1,1.4-3.5c0-1.4-0.4-2.5-1.3-3.4c-0.9-0.9-2-1.3-3.4-1.3
		c-0.3,0-0.5,0-0.9,0.1l0.2-1.2h4.4l0.8-2.9h-7.5l-1.4,7.6c1.1-0.5,2.1-0.7,3-0.7s1.6,0.2,2.1,0.5s0.7,0.8,0.7,1.4s-0.2,1.1-0.5,1.4
		S109.2,278.9,108.6,278.9z"/>
	<polygon class="st5" points="121.8,281.7 130.2,268.2 127.8,268.2 119.4,281.7 	"/>
	<path class="st5" d="M131.4,280.9c0.7-0.6,1-1.4,1-2.4c0-1-0.3-1.8-1-2.4c-0.7-0.7-1.5-1-2.5-1c-1,0-1.8,0.3-2.5,1s-1,1.5-1,2.5
		c0,1,0.3,1.8,1,2.4c0.7,0.6,1.5,1,2.5,1C130,281.8,130.8,281.5,131.4,280.9z M127.5,278.4c0-0.4,0.1-0.8,0.4-1
		c0.3-0.3,0.6-0.4,1-0.4s0.8,0.1,1.1,0.4c0.3,0.3,0.4,0.6,0.4,1c0,0.4-0.1,0.8-0.4,1c-0.3,0.3-0.6,0.4-1,0.4c-0.4,0-0.8-0.1-1.1-0.4
		C127.7,279.2,127.5,278.9,127.5,278.4z"/>
	<path class="st5" d="M120.7,274.9c1,0,1.8-0.3,2.5-1c0.7-0.7,1-1.5,1-2.4c0-1-0.3-1.8-1-2.4c-0.7-0.7-1.5-1-2.5-1s-1.8,0.3-2.5,1
		c-0.7,0.7-1,1.5-1,2.4c0,1,0.3,1.8,1,2.4C118.8,274.5,119.7,274.9,120.7,274.9z M119.9,270.2c0.2-0.1,0.5-0.2,0.9-0.2
		s0.7,0.1,0.9,0.4c0.3,0.3,0.4,0.6,0.4,1s-0.1,0.8-0.4,1c-0.3,0.3-0.6,0.4-1,0.4s-0.8-0.1-1-0.4c-0.3-0.3-0.4-0.6-0.4-0.9
		C119.2,270.9,119.4,270.5,119.9,270.2z"/>
	<polygon class="st5" points="92.1,359.5 94.9,359.5 94.9,370.1 98.3,370.1 98.3,356.5 92.9,356.5 	"/>
	<path class="st5" d="M108.4,357.3c-0.8-0.6-1.8-0.9-2.8-0.9s-2,0.3-2.8,0.9s-1.5,1.4-2,2.5c-0.5,1.1-0.7,2.2-0.7,3.5
		c0,1.3,0.2,2.5,0.7,3.5c0.5,1.1,1.1,1.9,2,2.5c0.8,0.6,1.8,0.9,2.8,0.9s2-0.3,2.8-0.9s1.5-1.4,2-2.5c0.5-1.1,0.7-2.2,0.7-3.5
		c0-1.3-0.2-2.5-0.7-3.5S109.2,357.9,108.4,357.3z M107.3,365.9c-0.5,0.7-1,1-1.7,1c-0.7,0-1.3-0.3-1.7-1c-0.5-0.7-0.7-1.5-0.7-2.6
		c0-1,0.2-1.9,0.7-2.6c0.5-0.7,1-1,1.7-1c0.5,0,0.9,0.2,1.2,0.5s0.7,0.7,0.9,1.3c0.2,0.6,0.3,1.2,0.3,1.8
		C108,364.3,107.8,365.2,107.3,365.9z"/>
	<path class="st5" d="M120.4,357.3c-0.8-0.6-1.8-0.9-2.8-0.9s-2,0.3-2.8,0.9s-1.5,1.4-2,2.5c-0.5,1.1-0.7,2.2-0.7,3.5
		c0,1.3,0.2,2.5,0.7,3.5c0.5,1.1,1.1,1.9,2,2.5c0.8,0.6,1.8,0.9,2.8,0.9s2-0.3,2.8-0.9s1.5-1.4,2-2.5c0.5-1.1,0.7-2.2,0.7-3.5
		c0-1.3-0.2-2.5-0.7-3.5S121.2,357.9,120.4,357.3z M119.3,365.9c-0.5,0.7-1,1-1.7,1c-0.7,0-1.3-0.3-1.7-1c-0.5-0.7-0.7-1.5-0.7-2.6
		c0-1,0.2-1.9,0.7-2.6c0.5-0.7,1-1,1.7-1c0.5,0,0.9,0.2,1.2,0.5s0.7,0.7,0.9,1.3c0.2,0.6,0.3,1.2,0.3,1.8
		C120,364.3,119.8,365.2,119.3,365.9z"/>
	<path class="st5" d="M132.7,362.2c0.7-0.7,1-1.5,1-2.4c0-1-0.3-1.8-1-2.4c-0.7-0.7-1.5-1-2.5-1s-1.8,0.3-2.5,1
		c-0.7,0.7-1,1.5-1,2.4c0,1,0.3,1.8,1,2.4c0.7,0.7,1.5,1,2.5,1S132,362.9,132.7,362.2z M129.2,360.8c-0.3-0.3-0.4-0.6-0.4-0.9
		c0-0.6,0.2-1.1,0.7-1.4c0.2-0.1,0.5-0.2,0.9-0.2s0.7,0.1,0.9,0.4c0.3,0.3,0.4,0.6,0.4,1s-0.1,0.8-0.4,1c-0.3,0.3-0.6,0.4-1,0.4
		S129.4,361.1,129.2,360.8z"/>
	<polygon class="st5" points="137.4,356.5 129,370.1 131.3,370.1 139.8,356.5 	"/>
	<path class="st5" d="M138.6,363.4c-1,0-1.8,0.3-2.5,1s-1,1.5-1,2.5c0,1,0.3,1.8,1,2.4c0.7,0.6,1.5,1,2.5,1c1,0,1.8-0.3,2.5-1
		c0.7-0.6,1-1.4,1-2.4c0-1-0.3-1.8-1-2.4C140.4,363.7,139.5,363.4,138.6,363.4z M139.6,367.8c-0.3,0.3-0.6,0.4-1,0.4
		c-0.4,0-0.8-0.1-1.1-0.4c-0.3-0.3-0.4-0.6-0.4-1c0-0.4,0.1-0.8,0.4-1c0.3-0.3,0.6-0.4,1-0.4s0.8,0.1,1.1,0.4c0.3,0.3,0.4,0.6,0.4,1
		C140,367.2,139.9,367.5,139.6,367.8z"/>
	<polygon class="st5" points="496.7,359.5 499.5,359.5 499.5,370.1 502.9,370.1 502.9,356.5 497.5,356.5 	"/>
	<path class="st5" d="M513,357.3c-0.8-0.6-1.8-0.9-2.8-0.9s-2,0.3-2.8,0.9s-1.5,1.4-2,2.5c-0.5,1.1-0.7,2.2-0.7,3.5
		c0,1.3,0.2,2.5,0.7,3.5c0.5,1.1,1.1,1.9,2,2.5c0.8,0.6,1.8,0.9,2.8,0.9s2-0.3,2.8-0.9s1.5-1.4,2-2.5c0.5-1.1,0.7-2.2,0.7-3.5
		c0-1.3-0.2-2.5-0.7-3.5S513.8,357.9,513,357.3z M511.9,365.9c-0.5,0.7-1,1-1.7,1c-0.7,0-1.3-0.3-1.7-1c-0.5-0.7-0.7-1.5-0.7-2.6
		c0-1,0.2-1.9,0.7-2.6c0.5-0.7,1-1,1.7-1c0.5,0,0.9,0.2,1.2,0.5s0.7,0.7,0.9,1.3c0.2,0.6,0.3,1.2,0.3,1.8
		C512.6,364.3,512.4,365.2,511.9,365.9z"/>
	<path class="st5" d="M525,357.3c-0.8-0.6-1.8-0.9-2.8-0.9s-2,0.3-2.8,0.9s-1.5,1.4-2,2.5c-0.5,1.1-0.7,2.2-0.7,3.5
		c0,1.3,0.2,2.5,0.7,3.5c0.5,1.1,1.1,1.9,2,2.5c0.8,0.6,1.8,0.9,2.8,0.9s2-0.3,2.8-0.9s1.5-1.4,2-2.5c0.5-1.1,0.7-2.2,0.7-3.5
		c0-1.3-0.2-2.5-0.7-3.5S525.8,357.9,525,357.3z M523.9,365.9c-0.5,0.7-1,1-1.7,1c-0.7,0-1.3-0.3-1.7-1c-0.5-0.7-0.7-1.5-0.7-2.6
		c0-1,0.2-1.9,0.7-2.6c0.5-0.7,1-1,1.7-1c0.5,0,0.9,0.2,1.2,0.5s0.7,0.7,0.9,1.3c0.2,0.6,0.3,1.2,0.3,1.8
		C524.6,364.3,524.4,365.2,523.9,365.9z"/>
	<path class="st5" d="M543.1,363.4c-1,0-1.8,0.3-2.5,1s-1,1.5-1,2.5c0,1,0.3,1.8,1,2.4c0.7,0.6,1.5,1,2.5,1c1,0,1.8-0.3,2.5-1
		c0.7-0.6,1-1.4,1-2.4c0-1-0.3-1.8-1-2.4C544.9,363.7,544.1,363.4,543.1,363.4z M544.2,367.8c-0.3,0.3-0.6,0.4-1,0.4
		c-0.4,0-0.8-0.1-1.1-0.4c-0.3-0.3-0.4-0.6-0.4-1c0-0.4,0.1-0.8,0.4-1c0.3-0.3,0.6-0.4,1-0.4s0.8,0.1,1.1,0.4c0.3,0.3,0.4,0.6,0.4,1
		C544.6,367.2,544.5,367.5,544.2,367.8z"/>
	<polygon class="st5" points="542,356.5 533.6,370.1 535.9,370.1 544.4,356.5 	"/>
	<path class="st5" d="M537.3,362.2c0.7-0.7,1-1.5,1-2.4c0-1-0.3-1.8-1-2.4c-0.7-0.7-1.5-1-2.5-1s-1.8,0.3-2.5,1
		c-0.7,0.7-1,1.5-1,2.4c0,1,0.3,1.8,1,2.4c0.7,0.7,1.5,1,2.5,1S536.6,362.9,537.3,362.2z M533.8,360.8c-0.3-0.3-0.4-0.6-0.4-0.9
		c0-0.6,0.2-1.1,0.7-1.4c0.2-0.1,0.5-0.2,0.9-0.2s0.7,0.1,0.9,0.4c0.3,0.3,0.4,0.6,0.4,1s-0.1,0.8-0.4,1c-0.3,0.3-0.6,0.4-1,0.4
		S534,361.1,533.8,360.8z"/>
	<polygon class="st5" points="510.1,282.1 517.3,268.6 506.4,268.6 506.4,271.5 512.3,271.5 506.6,282.1 	"/>
	<path class="st5" d="M523.1,272.7c-0.3,0-0.5,0-0.9,0.1l0.2-1.2h4.4l0.8-2.9h-7.5l-1.4,7.6c1.1-0.5,2.1-0.7,3-0.7s1.6,0.2,2.1,0.5
		s0.7,0.8,0.7,1.4s-0.2,1.1-0.5,1.4s-0.8,0.5-1.5,0.5s-1.2-0.2-1.8-0.5c-0.6-0.4-1-0.8-1.3-1.4l-2.2,2.2c0.5,0.8,1.3,1.4,2.3,1.9
		c1,0.5,2,0.7,3.1,0.7c1.5,0,2.7-0.5,3.6-1.4s1.4-2.1,1.4-3.5c0-1.4-0.4-2.5-1.3-3.4C525.7,273.1,524.5,272.7,523.1,272.7z"/>
	<path class="st5" d="M540.7,276.4c-0.7,0.7-1,1.5-1,2.5c0,1,0.3,1.8,1,2.4c0.7,0.6,1.5,1,2.5,1c1,0,1.8-0.3,2.5-1
		c0.7-0.6,1-1.4,1-2.4c0-1-0.3-1.8-1-2.4c-0.7-0.7-1.5-1-2.5-1C542.2,275.4,541.3,275.7,540.7,276.4z M544.6,278.8
		c0,0.4-0.1,0.8-0.4,1c-0.3,0.3-0.6,0.4-1,0.4c-0.4,0-0.8-0.1-1.1-0.4c-0.3-0.3-0.4-0.6-0.4-1c0-0.4,0.1-0.8,0.4-1
		c0.3-0.3,0.6-0.4,1-0.4s0.8,0.1,1.1,0.4C544.5,278.1,544.6,278.4,544.6,278.8z"/>
	<path class="st5" d="M534.8,275.3c1,0,1.8-0.3,2.5-1c0.7-0.7,1-1.5,1-2.4c0-1-0.3-1.8-1-2.4s-1.5-1-2.5-1s-1.8,0.3-2.5,1
		c-0.7,0.7-1,1.5-1,2.4c0,1,0.3,1.8,1,2.4C533,274.9,533.8,275.3,534.8,275.3z M534.1,270.6c0.2-0.1,0.5-0.2,0.9-0.2
		s0.7,0.1,0.9,0.4c0.3,0.3,0.4,0.6,0.4,1s-0.1,0.8-0.4,1c-0.3,0.3-0.6,0.4-1,0.4s-0.8-0.1-1-0.4c-0.3-0.3-0.4-0.6-0.4-0.9
		C533.3,271.3,533.6,270.8,534.1,270.6z"/>
	<polygon class="st5" points="535.9,282.1 544.4,268.6 542,268.6 533.6,282.1 	"/>
	<path class="st5" d="M473,188.7c-0.3,0-0.5,0-0.9,0.1l0.2-1.2h4.4l0.8-2.9H470l-1.4,7.6c1.1-0.5,2.1-0.7,3-0.7s1.6,0.2,2.1,0.5
		c0.5,0.3,0.7,0.8,0.7,1.4c0,0.6-0.2,1.1-0.5,1.4c-0.3,0.3-0.8,0.5-1.5,0.5s-1.2-0.2-1.8-0.5s-1-0.8-1.3-1.4l-2.2,2.2
		c0.5,0.8,1.3,1.4,2.3,1.9c1,0.5,2,0.7,3.1,0.7c1.5,0,2.7-0.5,3.6-1.4s1.4-2.1,1.4-3.5c0-1.4-0.4-2.5-1.3-3.4
		C475.5,189.1,474.3,188.7,473,188.7z"/>
	<path class="st5" d="M486.8,185.3c-0.8-0.6-1.8-0.9-2.8-0.9s-2,0.3-2.8,0.9s-1.5,1.4-2,2.5c-0.5,1.1-0.7,2.2-0.7,3.5
		c0,1.3,0.2,2.5,0.7,3.5c0.5,1.1,1.1,1.9,2,2.5s1.8,0.9,2.8,0.9s2-0.3,2.8-0.9s1.5-1.4,2-2.5c0.5-1.1,0.7-2.2,0.7-3.5
		c0-1.3-0.2-2.5-0.7-3.5S487.6,185.9,486.8,185.3z M485.7,193.9c-0.5,0.7-1,1-1.7,1c-0.7,0-1.3-0.3-1.7-1c-0.5-0.7-0.7-1.5-0.7-2.6
		c0-1,0.2-1.9,0.7-2.6c0.5-0.7,1-1,1.7-1c0.5,0,0.9,0.2,1.2,0.5c0.4,0.3,0.7,0.7,0.9,1.3c0.2,0.6,0.3,1.2,0.3,1.8
		C486.4,192.3,486.2,193.2,485.7,193.9z"/>
	<polygon class="st5" points="506.2,184.6 503.8,184.6 495.4,198.1 497.8,198.1 	"/>
	<path class="st5" d="M499.1,190.3c0.7-0.7,1-1.5,1-2.4c0-1-0.3-1.8-1-2.4c-0.7-0.7-1.5-1-2.5-1s-1.8,0.3-2.5,1
		c-0.7,0.7-1,1.5-1,2.4c0,1,0.3,1.8,1,2.4c0.7,0.7,1.5,1,2.5,1S498.4,190.9,499.1,190.3z M495.6,188.9c-0.3-0.3-0.4-0.6-0.4-0.9
		c0-0.6,0.2-1.1,0.7-1.4c0.2-0.1,0.5-0.2,0.9-0.2s0.7,0.1,0.9,0.4c0.3,0.3,0.4,0.6,0.4,1c0,0.4-0.1,0.8-0.4,1
		c-0.3,0.3-0.6,0.4-1,0.4S495.9,189.1,495.6,188.9z"/>
	<path class="st5" d="M502.5,192.4c-0.7,0.7-1,1.5-1,2.5c0,1,0.3,1.8,1,2.4s1.5,1,2.5,1c1,0,1.8-0.3,2.5-1c0.7-0.6,1-1.4,1-2.4
		c0-1-0.3-1.8-1-2.4s-1.5-1-2.5-1C504,191.4,503.2,191.7,502.5,192.4z M506.4,194.8c0,0.4-0.1,0.8-0.4,1c-0.3,0.3-0.6,0.4-1,0.4
		c-0.4,0-0.8-0.1-1.1-0.4c-0.3-0.3-0.4-0.6-0.4-1c0-0.4,0.1-0.8,0.4-1c0.3-0.3,0.6-0.4,1-0.4s0.8,0.1,1.1,0.4
		C506.3,194.1,506.4,194.4,506.4,194.8z"/>
	<path class="st5" d="M405,128.9c1.1-1.2,1.9-2.2,2.4-3.1s0.7-1.7,0.7-2.7c0-1.3-0.4-2.4-1.3-3.3c-0.9-0.8-2.1-1.3-3.5-1.3
		c-1.1,0-2.2,0.3-3.1,0.8c-1,0.5-1.7,1.3-2.3,2.2l2.3,2.1c0.9-1.4,1.9-2.2,3-2.2c0.9,0,1.4,0.4,1.7,1.1c0.1,0.2,0.1,0.5,0.1,0.7
		c0,0.6-0.2,1.1-0.5,1.7c-0.1,0.2-0.3,0.4-0.4,0.6c-0.1,0.2-0.4,0.5-0.9,1s-0.8,0.8-1,1.1l-4.4,4.6h10.1l0.8-2.9h-4L405,128.9z"/>
	<path class="st5" d="M414.8,122.9c-0.3,0-0.5,0-0.9,0.1l0.2-1.2h4.4l0.8-2.9h-7.5l-1.4,7.6c1.1-0.5,2.1-0.7,3-0.7s1.6,0.2,2.1,0.5
		c0.5,0.3,0.7,0.8,0.7,1.4c0,0.6-0.2,1.1-0.5,1.4c-0.3,0.3-0.8,0.5-1.5,0.5s-1.2-0.2-1.8-0.5c-0.6-0.4-1-0.8-1.3-1.4l-2.2,2.2
		c0.5,0.8,1.3,1.4,2.3,1.9c1,0.5,2,0.7,3.1,0.7c1.5,0,2.7-0.5,3.6-1.4s1.4-2.1,1.4-3.5c0-1.4-0.4-2.5-1.3-3.4
		C417.3,123.4,416.2,122.9,414.8,122.9z"/>
	<polygon class="st5" points="433.6,118.8 425.2,132.3 427.6,132.3 436,118.8 	"/>
	<path class="st5" d="M434.8,125.6c-1,0-1.8,0.3-2.5,1c-0.7,0.7-1,1.5-1,2.5c0,1,0.3,1.8,1,2.4c0.7,0.6,1.5,1,2.5,1
		c1,0,1.8-0.3,2.5-1c0.7-0.6,1-1.4,1-2.4s-0.3-1.8-1-2.4S435.8,125.6,434.8,125.6z M435.8,130.1c-0.3,0.3-0.6,0.4-1,0.4
		c-0.4,0-0.8-0.1-1.1-0.4c-0.3-0.3-0.4-0.6-0.4-1s0.1-0.8,0.4-1c0.3-0.3,0.6-0.4,1-0.4s0.8,0.1,1.1,0.4c0.3,0.3,0.4,0.6,0.4,1
		C436.2,129.5,436.1,129.8,435.8,130.1z"/>
	<path class="st5" d="M428.9,124.5c0.7-0.7,1-1.5,1-2.4c0-1-0.3-1.8-1-2.4c-0.7-0.7-1.5-1-2.5-1s-1.8,0.3-2.5,1
		c-0.7,0.7-1,1.5-1,2.4c0,1,0.3,1.8,1,2.4c0.7,0.7,1.5,1,2.5,1S428.2,125.2,428.9,124.5z M425.4,123.1c-0.3-0.3-0.4-0.6-0.4-0.9
		c0-0.6,0.2-1.1,0.7-1.4c0.2-0.1,0.5-0.2,0.9-0.2s0.7,0.1,0.9,0.4c0.3,0.3,0.4,0.6,0.4,1s-0.1,0.8-0.4,1c-0.3,0.3-0.6,0.4-1,0.4
		S425.7,123.4,425.4,123.1z"/>
</g>
</svg>
