<?xml version="1.0" encoding="utf-8"?>
<!-- Generator: Adobe Illustrator 21.0.0, SVG Export Plug-In . SVG Version: 6.00 Build 0)  -->
<svg version="1.1" id="Lag_1" xmlns="http://www.w3.org/2000/svg" xmlns:xlink="http://www.w3.org/1999/xlink" x="0px" y="0px"
	 viewBox="0 0 244 192" style="enable-background:new 0 0 244 192;" xml:space="preserve">
<style type="text/css">
	.st0{fill:#F5F2ED;}
	.st1{fill:#E6E6E6;}
</style>
<g>
	<path class="st0" d="M21.8,191.5c-13.9-20.4-21.3-44.2-21.3-69C0.5,55.2,55,0.5,122,0.5c67,0,121.5,54.7,121.5,122
		c0,24.8-7.4,48.6-21.3,69H21.8z"/>
	<path class="st1" d="M122,1c32.3,0,62.7,12.6,85.6,35.6c22.9,23,35.4,53.5,35.4,85.9c0,24.6-7.3,48.2-21,68.5H22
		C8.3,170.8,1,147.1,1,122.5c0-32.5,12.6-63,35.4-85.9C59.3,13.6,89.7,1,122,1 M122,0C54.6,0,0,54.9,0,122.5
		c0,25.8,8,49.7,21.5,69.5h201c13.6-19.7,21.5-43.7,21.5-69.5C244,54.9,189.4,0,122,0L122,0z"/>
</g>
</svg>
